<svg width="19" height="19" viewBox="0 0 19 19" fill="none" xmlns="http://www.w3.org/2000/svg">
<g clip-path="url(#clip0)">
<path d="M14.4451 12.5689C13.8244 11.956 13.0494 11.956 12.4326 12.5689C11.9622 13.0354 11.4917 13.5019 11.0291 13.9764C10.9026 14.1069 10.7958 14.1345 10.6416 14.0475C10.3372 13.8815 10.013 13.7471 9.7204 13.5652C8.35636 12.7072 7.21374 11.6041 6.20159 10.3627C5.69946 9.7459 5.25269 9.08563 4.94035 8.34233C4.87709 8.19209 4.88895 8.09325 5.01152 7.97068C5.48201 7.516 5.94064 7.04946 6.40323 6.58292C7.04768 5.93451 7.04768 5.1754 6.39927 4.52304C6.03158 4.15139 5.66388 3.78764 5.29618 3.41599C4.91663 3.03644 4.54102 2.65293 4.15751 2.27732C3.53678 1.6724 2.76185 1.6724 2.14507 2.28128C1.67062 2.74782 1.21594 3.22622 0.733591 3.68485C0.28682 4.1079 0.0614581 4.62583 0.0140135 5.23075C-0.0611072 6.21523 0.18007 7.14435 0.52009 8.04976C1.21594 9.92382 2.27554 11.5883 3.5605 13.1145C5.29618 15.1783 7.36793 16.8112 9.79156 17.9894C10.8828 18.5192 12.0136 18.9264 13.2432 18.9937C14.0893 19.0411 14.8246 18.8276 15.4138 18.1673C15.817 17.7166 16.2717 17.3054 16.6987 16.8745C17.3313 16.234 17.3353 15.459 16.7066 14.8264C15.9554 14.0713 15.2003 13.3201 14.4451 12.5689Z" fill="#0188B8"/>
<path d="M13.6899 9.41775L15.1488 9.16867C14.9195 7.82836 14.2869 6.61457 13.3261 5.64986C12.31 4.63375 11.0251 3.99325 9.60965 3.79556L9.40405 5.26239C10.4992 5.41659 11.4956 5.9108 12.2824 6.69759C13.0257 7.44089 13.512 8.38188 13.6899 9.41775Z" fill="#58BE6A"/>
<path d="M15.9711 3.07599C14.2868 1.39171 12.1557 0.328159 9.80325 0L9.59766 1.46683C11.6299 1.7515 13.4723 2.67272 14.9273 4.12373C16.3071 5.50358 17.2125 7.24717 17.5407 9.16472L18.9996 8.91564C18.6161 6.69365 17.5684 4.67725 15.9711 3.07599Z" fill="#58BE6A"/>
</g>
<defs>
<clipPath id="clip0">
<rect width="19" height="19" fill="white"/>
</clipPath>
</defs>
</svg>
