<svg width="17" height="20" viewBox="0 0 17 20" fill="none" xmlns="http://www.w3.org/2000/svg">
<path d="M13.3576 0H2.72109C1.21805 0 0 1.22693 0 2.74093V14.5259C0 16.0399 1.21805 17.2669 2.72109 17.2669H4.97256C5.27367 17.2669 5.55742 17.4067 5.74205 17.6463L7.26864 19.6209C7.65896 20.1264 8.4173 20.1264 8.80762 19.6209L10.3342 17.6463C10.5188 17.4067 10.8026 17.2669 11.1037 17.2669H13.3552C14.8582 17.2669 16.0763 16.0399 16.0763 14.5259V2.74093C16.0775 1.22693 14.8594 0 13.3576 0Z" fill="url(#paint0_linear)"/>
<path d="M0 2.74093V14.5259C0 15.9001 1.00368 17.0372 2.31219 17.2357C4.27494 14.7656 5.44962 11.634 5.44962 8.22404C5.44962 5.16733 4.50542 2.33279 2.89457 0H2.72109C1.21805 0 0 1.22693 0 2.74093Z" fill="#58BE6A"/>
<path d="M9.8671 2.74467V6.83735H6.21048V2.74467H2.72485V14.5222H6.21048V9.61198H9.8671V14.5222H13.354V2.74467H9.8671Z" fill="white"/>
<defs>
<linearGradient id="paint0_linear" x1="8.03904" y1="19.5691" x2="8.03904" y2="0.0636298" gradientUnits="userSpaceOnUse">
<stop stop-color="#0270A6"/>
<stop offset="1" stop-color="#0089B9"/>
</linearGradient>
</defs>
</svg>
