<svg width="30" height="30" viewBox="0 0 30 30" fill="none" xmlns="http://www.w3.org/2000/svg">
<path d="M24.2777 27.0652V2.93479C24.2777 1.31672 22.9613 0 21.343 0H8.65817C7.04011 0 5.72339 1.31672 5.72339 2.93479V27.0652C5.72339 28.6836 7.04011 30 8.65817 30H21.3756C22.1598 30 22.9225 29.6775 23.4681 29.1154C24.0133 28.5531 24.3005 27.8146 24.2777 27.0652ZM22.0636 27.7526C21.882 27.9405 21.6377 28.0435 21.3755 28.0435H8.65817C8.11882 28.0435 7.67989 27.6046 7.67989 27.0652V2.93479C7.67989 2.39543 8.11882 1.9565 8.65817 1.9565H21.343C21.8823 1.9565 22.3212 2.39543 22.3212 2.93479L22.3216 27.0946C22.329 27.3398 22.2374 27.5736 22.0636 27.7526Z" fill="#0270A6"/>
<path d="M23.3316 3.81543H6.70117V5.77193H23.3316V3.81543Z" fill="#0270A6"/>
<path d="M23.3316 22.6958H6.70117V24.6523H23.3316V22.6958Z" fill="#0270A6"/>
<path d="M15.8321 25.3369H14.2017C13.6613 25.3369 13.2234 25.7748 13.2234 26.3152C13.2234 26.8555 13.6613 27.2935 14.2017 27.2935H15.8321C16.3725 27.2935 16.8104 26.8555 16.8104 26.3152C16.8104 25.7748 16.3724 25.3369 15.8321 25.3369Z" fill="#0270A6"/>
</svg>
