<svg width="60" height="60" viewBox="0 0 60 60" fill="none" xmlns="http://www.w3.org/2000/svg">
<path d="M56.2921 57.9776H54.6067V5.05617C54.6067 4.49754 54.1539 4.04496 53.5955 4.04496H34.7191C34.1606 4.04496 33.7079 4.49754 33.7079 5.05617V9.43816H31.6854V5.05617C31.6854 4.49754 31.2326 4.04496 30.6742 4.04496H26.2921V1.01121C26.2921 0.452578 25.8393 0 25.2809 0C24.7225 0 24.2697 0.452578 24.2697 1.01121V4.04496H19.8877C19.3292 4.04496 18.8765 4.49754 18.8765 5.05617V9.43816H15.8427C15.2842 9.43816 14.8315 9.89074 14.8315 10.4494V18.8763H6.40458C5.84606 18.8763 5.39337 19.3289 5.39337 19.8875V57.9775H3.70774C3.14923 57.9775 2.69653 58.43 2.69653 58.9887C2.69653 59.5473 3.14935 60 3.70774 60H56.2921C56.8506 60 57.3033 59.5474 57.3033 58.9888C57.3033 58.4302 56.8505 57.9776 56.2921 57.9776ZM20.8988 6.06738H29.6628V9.43816H20.8988V6.06738ZM17.528 57.9776H16.8538V56.2922C16.8538 55.7336 16.401 55.281 15.8426 55.281C15.2842 55.281 14.8314 55.7336 14.8314 56.2922V57.9776H14.1572V54.6068H17.528V57.9776ZM24.2696 32.0224V33.7621V57.9776H19.5504V53.5956C19.5504 53.037 19.0976 52.5844 18.5392 52.5844H13.146C12.5875 52.5844 12.1348 53.037 12.1348 53.5956V57.9776H7.41567V20.8989H24.2696V32.0224ZM25.2808 18.8764H16.8538V11.4607H33.7078V31.0112H26.2921V27.6404H29.3259C29.8844 27.6404 30.3371 27.1879 30.3371 26.6292C30.3371 26.0706 29.8843 25.618 29.3259 25.618H26.2921V22.2472H29.3259C29.8844 22.2472 30.3371 21.7946 30.3371 21.236C30.3371 20.6774 29.8843 20.2248 29.3259 20.2248H26.2921V19.8878C26.2921 19.329 25.8393 18.8764 25.2808 18.8764ZM43.146 57.9776H26.2921V33.7621V33.0337H43.146V57.9776ZM52.5842 57.9776H45.1684V32.0224V30.6741C45.1684 30.1154 44.7156 29.6629 44.1572 29.6629C43.5988 29.6629 43.146 30.1154 43.146 30.6741V31.0111H41.1236V30.6741C41.1236 30.1154 40.6708 29.6629 40.1124 29.6629C39.554 29.6629 39.1012 30.1154 39.1012 30.6741V31.0111H35.7304V10.4495V6.06738H52.5843V57.9776H52.5842Z" fill="#58BE6A"/>
<path d="M30.674 55.9551C31.2326 55.9551 31.6853 55.5023 31.6853 54.9439V36.0676C31.6853 35.509 31.2324 35.0564 30.674 35.0564C30.1157 35.0564 29.6628 35.509 29.6628 36.0676V54.9441C29.6628 55.5025 30.1155 55.9551 30.674 55.9551Z" fill="#58BE6A"/>
<path d="M34.719 55.9551C35.2775 55.9551 35.7302 55.5023 35.7302 54.9439V36.0676C35.7302 35.509 35.2774 35.0564 34.719 35.0564C34.1606 35.0564 33.7078 35.509 33.7078 36.0676V54.9441C33.7076 55.5025 34.1605 55.9551 34.719 55.9551Z" fill="#58BE6A"/>
<path d="M38.7639 55.9551C39.3224 55.9551 39.7751 55.5023 39.7751 54.9439V36.0676C39.7751 35.509 39.3223 35.0564 38.7639 35.0564C38.2055 35.0564 37.7527 35.509 37.7527 36.0676V54.9441C37.7527 55.5025 38.2055 55.9551 38.7639 55.9551Z" fill="#58BE6A"/>
<path d="M40.1123 12.8089C40.6708 12.8089 41.1235 12.3563 41.1235 11.7977V10.4494C41.1235 9.89081 40.6707 9.43823 40.1123 9.43823C39.5539 9.43823 39.1011 9.89081 39.1011 10.4494V11.7978C39.1011 12.3563 39.5538 12.8089 40.1123 12.8089Z" fill="#58BE6A"/>
<path d="M44.1572 12.8089C44.7157 12.8089 45.1684 12.3563 45.1684 11.7977V10.4494C45.1684 9.89081 44.7156 9.43823 44.1572 9.43823C43.5988 9.43823 43.146 9.89081 43.146 10.4494V11.7978C43.146 12.3563 43.5987 12.8089 44.1572 12.8089Z" fill="#58BE6A"/>
<path d="M48.2021 12.8089C48.7606 12.8089 49.2133 12.3563 49.2133 11.7977V10.4494C49.2133 9.89081 48.7605 9.43823 48.2021 9.43823C47.6437 9.43823 47.1909 9.89081 47.1909 10.4494V11.7978C47.1909 12.3563 47.6436 12.8089 48.2021 12.8089Z" fill="#58BE6A"/>
<path d="M40.1123 19.5506C40.6708 19.5506 41.1235 19.098 41.1235 18.5394V17.191C41.1235 16.6324 40.6707 16.1798 40.1123 16.1798C39.5539 16.1798 39.1011 16.6324 39.1011 17.191V18.5394C39.1011 19.098 39.5538 19.5506 40.1123 19.5506Z" fill="#58BE6A"/>
<path d="M44.1572 19.5506C44.7157 19.5506 45.1684 19.098 45.1684 18.5394V17.191C45.1684 16.6324 44.7156 16.1798 44.1572 16.1798C43.5988 16.1798 43.146 16.6324 43.146 17.191V18.5394C43.146 19.098 43.5987 19.5506 44.1572 19.5506Z" fill="#58BE6A"/>
<path d="M48.2021 19.5506C48.7606 19.5506 49.2133 19.098 49.2133 18.5394V17.191C49.2133 16.6324 48.7605 16.1798 48.2021 16.1798C47.6437 16.1798 47.1909 16.6324 47.1909 17.191V18.5394C47.1909 19.098 47.6436 19.5506 48.2021 19.5506Z" fill="#58BE6A"/>
<path d="M40.1123 26.2922C40.6708 26.2922 41.1235 25.8396 41.1235 25.281V23.9326C41.1235 23.374 40.6707 22.9214 40.1123 22.9214C39.5539 22.9214 39.1011 23.374 39.1011 23.9326V25.281C39.1011 25.8395 39.5538 26.2922 40.1123 26.2922Z" fill="#58BE6A"/>
<path d="M44.1572 26.2922C44.7157 26.2922 45.1684 25.8396 45.1684 25.281V23.9326C45.1684 23.374 44.7156 22.9214 44.1572 22.9214C43.5988 22.9214 43.146 23.374 43.146 23.9326V25.281C43.146 25.8395 43.5987 26.2922 44.1572 26.2922Z" fill="#58BE6A"/>
<path d="M48.2021 26.2922C48.7606 26.2922 49.2133 25.8396 49.2133 25.281V23.9326C49.2133 23.374 48.7605 22.9214 48.2021 22.9214C47.6437 22.9214 47.1909 23.374 47.1909 23.9326V25.281C47.1909 25.8395 47.6436 26.2922 48.2021 26.2922Z" fill="#58BE6A"/>
<path d="M11.7976 28.9889C12.3561 28.9889 12.8088 28.5364 12.8088 27.9777V26.6294C12.8088 26.0707 12.356 25.6182 11.7976 25.6182C11.2392 25.6182 10.7864 26.0707 10.7864 26.6294V27.9777C10.7864 28.5363 11.2392 28.9889 11.7976 28.9889Z" fill="#58BE6A"/>
<path d="M15.8425 28.9889C16.401 28.9889 16.8537 28.5364 16.8537 27.9777V26.6294C16.8537 26.0707 16.4009 25.6182 15.8425 25.6182C15.2841 25.6182 14.8313 26.0707 14.8313 26.6294V27.9777C14.8313 28.5363 15.284 28.9889 15.8425 28.9889Z" fill="#58BE6A"/>
<path d="M19.8874 28.9889C20.4459 28.9889 20.8986 28.5364 20.8986 27.9777V26.6294C20.8986 26.0707 20.4458 25.6182 19.8874 25.6182C19.329 25.6182 18.8762 26.0707 18.8762 26.6294V27.9777C18.8762 28.5363 19.3289 28.9889 19.8874 28.9889Z" fill="#58BE6A"/>
<path d="M11.7976 35.7304C12.3561 35.7304 12.8088 35.2778 12.8088 34.7192V33.3708C12.8088 32.8122 12.356 32.3596 11.7976 32.3596C11.2392 32.3596 10.7864 32.8122 10.7864 33.3708V34.7192C10.7864 35.2777 11.2392 35.7304 11.7976 35.7304Z" fill="#58BE6A"/>
<path d="M15.8425 35.7304C16.401 35.7304 16.8537 35.2778 16.8537 34.7192V33.3708C16.8537 32.8122 16.4009 32.3596 15.8425 32.3596C15.2841 32.3596 14.8313 32.8122 14.8313 33.3708V34.7192C14.8313 35.2777 15.284 35.7304 15.8425 35.7304Z" fill="#58BE6A"/>
<path d="M19.8874 35.7304C20.4459 35.7304 20.8986 35.2778 20.8986 34.7192V33.3708C20.8986 32.8122 20.4458 32.3596 19.8874 32.3596C19.329 32.3596 18.8762 32.8122 18.8762 33.3708V34.7192C18.8762 35.2777 19.3289 35.7304 19.8874 35.7304Z" fill="#58BE6A"/>
<path d="M11.7976 42.472C12.3561 42.472 12.8088 42.0194 12.8088 41.4608V40.1124C12.8088 39.5538 12.356 39.1012 11.7976 39.1012C11.2392 39.1012 10.7864 39.5538 10.7864 40.1124V41.4608C10.7864 42.0194 11.2392 42.472 11.7976 42.472Z" fill="#58BE6A"/>
<path d="M15.8425 42.472C16.401 42.472 16.8537 42.0194 16.8537 41.4608V40.1124C16.8537 39.5538 16.4009 39.1012 15.8425 39.1012C15.2841 39.1012 14.8313 39.5538 14.8313 40.1124V41.4608C14.8313 42.0194 15.284 42.472 15.8425 42.472Z" fill="#58BE6A"/>
<path d="M19.8874 42.472C20.4459 42.472 20.8986 42.0194 20.8986 41.4608V40.1124C20.8986 39.5538 20.4458 39.1012 19.8874 39.1012C19.329 39.1012 18.8762 39.5538 18.8762 40.1124V41.4608C18.8762 42.0194 19.3289 42.472 19.8874 42.472Z" fill="#58BE6A"/>
<path d="M11.7976 49.2134C12.3561 49.2134 12.8088 48.7609 12.8088 48.2022V46.8539C12.8088 46.2952 12.356 45.8427 11.7976 45.8427C11.2392 45.8427 10.7864 46.2952 10.7864 46.8539V48.2022C10.7864 48.7609 11.2392 49.2134 11.7976 49.2134Z" fill="#58BE6A"/>
<path d="M15.8425 49.2134C16.401 49.2134 16.8537 48.7609 16.8537 48.2022V46.8539C16.8537 46.2952 16.4009 45.8427 15.8425 45.8427C15.2841 45.8427 14.8313 46.2952 14.8313 46.8539V48.2022C14.8313 48.7609 15.284 49.2134 15.8425 49.2134Z" fill="#58BE6A"/>
<path d="M19.8874 49.2134C20.4459 49.2134 20.8986 48.7609 20.8986 48.2022V46.8539C20.8986 46.2952 20.4458 45.8427 19.8874 45.8427C19.329 45.8427 18.8762 46.2952 18.8762 46.8539V48.2022C18.8762 48.7609 19.3289 49.2134 19.8874 49.2134Z" fill="#58BE6A"/>
<path d="M48.2021 33.0337C48.7606 33.0337 49.2133 32.5812 49.2133 32.0225V30.6742C49.2133 30.1155 48.7605 29.663 48.2021 29.663C47.6437 29.663 47.1909 30.1155 47.1909 30.6742V32.0225C47.1909 32.581 47.6436 33.0337 48.2021 33.0337Z" fill="#58BE6A"/>
<path d="M48.2021 39.7753C48.7606 39.7753 49.2133 39.3227 49.2133 38.7641V37.4158C49.2133 36.8571 48.7605 36.4045 48.2021 36.4045C47.6437 36.4045 47.1909 36.8571 47.1909 37.4158V38.7641C47.1909 39.3226 47.6436 39.7753 48.2021 39.7753Z" fill="#58BE6A"/>
<path d="M48.2021 46.5169C48.7606 46.5169 49.2133 46.0643 49.2133 45.5057V44.1573C49.2133 43.5987 48.7605 43.1461 48.2021 43.1461C47.6437 43.1461 47.1909 43.5987 47.1909 44.1573V45.5057C47.1909 46.0642 47.6436 46.5169 48.2021 46.5169Z" fill="#58BE6A"/>
<path d="M48.2021 53.2583C48.7606 53.2583 49.2133 52.8058 49.2133 52.2471V50.8988C49.2133 50.3402 48.7605 49.8876 48.2021 49.8876C47.6437 49.8876 47.1909 50.3402 47.1909 50.8988V52.2471C47.1909 52.8057 47.6436 53.2583 48.2021 53.2583Z" fill="#58BE6A"/>
<path d="M30.337 15.8426C30.337 15.284 29.8841 14.8314 29.3258 14.8314H21.2358C20.6773 14.8314 20.2246 15.284 20.2246 15.8426C20.2246 16.4013 20.6774 16.8538 21.2358 16.8538H29.3258C29.8843 16.8538 30.337 16.4013 30.337 15.8426Z" fill="#58BE6A"/>
</svg>
