<svg width="60" height="60" viewBox="0 0 60 60" fill="none" xmlns="http://www.w3.org/2000/svg">
<path d="M57.5675 58.3784H2.43239C2.27231 58.3777 2.11606 58.3295 1.98331 58.24C1.85056 58.1506 1.74727 58.0238 1.68644 57.8757C1.62435 57.7281 1.60739 57.5653 1.63769 57.4081C1.66799 57.2508 1.74421 57.106 1.85671 56.992L56.9918 1.85683C57.1059 1.74433 57.2507 1.66811 57.4079 1.63781C57.5652 1.60751 57.728 1.62447 57.8756 1.68656C58.0237 1.74739 58.1505 1.85069 58.2399 1.98343C58.3294 2.11618 58.3775 2.27243 58.3783 2.43251V57.5676C58.3783 57.7827 58.2929 57.9889 58.1409 58.141C57.9888 58.293 57.7826 58.3784 57.5675 58.3784ZM4.38644 56.7568H56.7567V4.38656L4.38644 56.7568Z" fill="#58BE6A"/>
<path d="M49.4595 50.2703H22.0054C21.8451 50.2696 21.6885 50.2214 21.5555 50.1317C21.4226 50.0421 21.3192 49.915 21.2584 49.7666C21.1977 49.6182 21.1823 49.4551 21.2142 49.298C21.2462 49.1409 21.324 48.9967 21.4378 48.8838L48.8838 21.4378C48.9967 21.324 49.1409 21.2462 49.298 21.2142C49.4552 21.1823 49.6182 21.1977 49.7666 21.2584C49.9151 21.3192 50.0421 21.4226 50.1318 21.5555C50.2214 21.6885 50.2696 21.8451 50.2703 22.0054V49.4595C50.2703 49.6745 50.1849 49.8807 50.0328 50.0328C49.8807 50.1848 49.6745 50.2703 49.4595 50.2703ZM23.9676 48.6487H48.6487V23.9676L23.9676 48.6487Z" fill="#58BE6A"/>
<path d="M11.3513 53.5135H12.9729V57.5676H11.3513V53.5135Z" fill="#58BE6A"/>
<path d="M17.8379 54.3243H19.4595V57.5676H17.8379V54.3243Z" fill="#58BE6A"/>
<path d="M24.3242 53.5135H25.9458V57.5676H24.3242V53.5135Z" fill="#58BE6A"/>
<path d="M30.8108 54.3243H32.4324V57.5676H30.8108V54.3243Z" fill="#58BE6A"/>
<path d="M37.2974 53.5135H38.919V57.5676H37.2974V53.5135Z" fill="#58BE6A"/>
<path d="M43.7837 54.3243H45.4053V57.5676H43.7837V54.3243Z" fill="#58BE6A"/>
<path d="M50.2703 53.5135H51.8919V57.5676H50.2703V53.5135Z" fill="#58BE6A"/>
<path d="M53.5134 11.3513H57.5675V12.9729H53.5134V11.3513Z" fill="#58BE6A"/>
<path d="M54.3242 17.8379H57.5675V19.4595H54.3242V17.8379Z" fill="#58BE6A"/>
<path d="M53.5134 24.3243H57.5675V25.946H53.5134V24.3243Z" fill="#58BE6A"/>
<path d="M54.3242 30.8108H57.5675V32.4324H54.3242V30.8108Z" fill="#58BE6A"/>
<path d="M53.5134 37.2974H57.5675V38.919H53.5134V37.2974Z" fill="#58BE6A"/>
<path d="M54.3242 43.7838H57.5675V45.4054H54.3242V43.7838Z" fill="#58BE6A"/>
<path d="M53.5134 50.2703H57.5675V51.8919H53.5134V50.2703Z" fill="#58BE6A"/>
</svg>
