<svg width="60" height="60" viewBox="0 0 60 60" fill="none" xmlns="http://www.w3.org/2000/svg">
<path d="M55 58V52.822C56.9204 52.0122 58.1222 50.0805 58 48C58 45.243 56.206 43 54 43C51.794 43 50 45.243 50 48C49.8778 50.0805 51.0796 52.0122 53 52.822V58H48V27C48.0001 26.621 47.786 26.2744 47.447 26.105L40 22.382V17C40.0003 16.5534 39.7044 16.1607 39.275 16.038L26 12.245V1C26 0.44775 25.5522 0 25 0H5C4.44775 0 4 0.44775 4 1V58H0V60H60V58H55ZM24 58H6V56H15V54H6V50H15V48H6V44H15V42H6V38H15V36H6V32H15V30H6V26H15V24H6V20H15V18H6V14H15V12H6V8H15V6H6V2H24V58ZM38 58H26V56H33V54H26V50H33V48H26V44H33V42H26V38H33V36H26V32H33V30H26V26H33V24H26V20H33V18H26V14.326L38 17.754V58ZM46 58H40V56H43V54H40V50H43V48H40V44H43V42H40V38H43V36H40V32H43V30H40V24.618L46 27.618V58ZM53 50.57C52.3284 49.8866 51.9669 48.9575 52 48C52 46.374 52.916 45 54 45C55.084 45 56 46.374 56 48C56.0324 48.9574 55.671 49.8862 55 50.57V49H53V50.57Z" fill="#58BE6A"/>
</svg>
