<svg width="60" height="60" viewBox="0 0 60 60" fill="none" xmlns="http://www.w3.org/2000/svg">
<path d="M53.4375 7.5H48.75V5.625C48.75 4.63044 48.3549 3.67661 47.6516 2.97335C46.9484 2.27009 45.9946 1.875 45 1.875C44.0054 1.875 43.0516 2.27009 42.3484 2.97335C41.6451 3.67661 41.25 4.63044 41.25 5.625V7.5H33.75V5.625C33.75 4.63044 33.3549 3.67661 32.6516 2.97335C31.9484 2.27009 30.9946 1.875 30 1.875C29.0054 1.875 28.0516 2.27009 27.3484 2.97335C26.6451 3.67661 26.25 4.63044 26.25 5.625V7.5H18.75V5.625C18.75 4.63044 18.3549 3.67661 17.6516 2.97335C16.9484 2.27009 15.9946 1.875 15 1.875C14.0054 1.875 13.0516 2.27009 12.3483 2.97335C11.6451 3.67661 11.25 4.63044 11.25 5.625V7.5H6.5625C5.3193 7.5 4.12701 7.99386 3.24794 8.87294C2.36886 9.75201 1.875 10.9443 1.875 12.1875V49.6875C1.875 50.9307 2.36886 52.123 3.24794 53.0021C4.12701 53.8811 5.3193 54.375 6.5625 54.375H32.8125C33.0611 54.375 33.2996 54.2762 33.4754 54.1004C33.6512 53.9246 33.75 53.6861 33.75 53.4375C33.75 53.1889 33.6512 52.9504 33.4754 52.7746C33.2996 52.5988 33.0611 52.5 32.8125 52.5H6.5625C5.81726 52.4978 5.10319 52.2007 4.57622 51.6738C4.04926 51.1468 3.75223 50.4327 3.75 49.6875V20.625H56.25V36.5625C56.25 36.8111 56.3488 37.0496 56.5246 37.2254C56.7004 37.4012 56.9389 37.5 57.1875 37.5C57.4361 37.5 57.6746 37.4012 57.8504 37.2254C58.0262 37.0496 58.125 36.8111 58.125 36.5625V12.1875C58.125 10.9443 57.6311 9.75201 56.7521 8.87294C55.873 7.99386 54.6807 7.5 53.4375 7.5ZM43.125 5.625C43.125 5.12772 43.3225 4.65081 43.6742 4.29917C44.0258 3.94754 44.5027 3.75 45 3.75C45.4973 3.75 45.9742 3.94754 46.3258 4.29917C46.6775 4.65081 46.875 5.12772 46.875 5.625V11.25C46.875 11.7473 46.6775 12.2242 46.3258 12.5758C45.9742 12.9275 45.4973 13.125 45 13.125C44.5027 13.125 44.0258 12.9275 43.6742 12.5758C43.3225 12.2242 43.125 11.7473 43.125 11.25V5.625ZM28.125 5.625C28.125 5.12772 28.3225 4.65081 28.6742 4.29917C29.0258 3.94754 29.5027 3.75 30 3.75C30.4973 3.75 30.9742 3.94754 31.3258 4.29917C31.6775 4.65081 31.875 5.12772 31.875 5.625V11.25C31.875 11.7473 31.6775 12.2242 31.3258 12.5758C30.9742 12.9275 30.4973 13.125 30 13.125C29.5027 13.125 29.0258 12.9275 28.6742 12.5758C28.3225 12.2242 28.125 11.7473 28.125 11.25V5.625ZM13.125 5.625C13.125 5.12772 13.3225 4.65081 13.6742 4.29917C14.0258 3.94754 14.5027 3.75 15 3.75C15.4973 3.75 15.9742 3.94754 16.3258 4.29917C16.6775 4.65081 16.875 5.12772 16.875 5.625V11.25C16.875 11.7473 16.6775 12.2242 16.3258 12.5758C15.9742 12.9275 15.4973 13.125 15 13.125C14.5027 13.125 14.0258 12.9275 13.6742 12.5758C13.3225 12.2242 13.125 11.7473 13.125 11.25V5.625ZM56.25 18.75H3.75V12.1875C3.75223 11.4423 4.04926 10.7282 4.57622 10.2012C5.10319 9.67426 5.81726 9.37723 6.5625 9.375H11.25V11.25C11.25 12.2446 11.6451 13.1984 12.3483 13.9017C13.0516 14.6049 14.0054 15 15 15C15.9946 15 16.9484 14.6049 17.6516 13.9017C18.3549 13.1984 18.75 12.2446 18.75 11.25V9.375H26.25V11.25C26.25 12.2446 26.6451 13.1984 27.3484 13.9017C28.0516 14.6049 29.0054 15 30 15C30.9946 15 31.9484 14.6049 32.6516 13.9017C33.3549 13.1984 33.75 12.2446 33.75 11.25V9.375H41.25V11.25C41.25 12.2446 41.6451 13.1984 42.3484 13.9017C43.0516 14.6049 44.0054 15 45 15C45.9946 15 46.9484 14.6049 47.6516 13.9017C48.3549 13.1984 48.75 12.2446 48.75 11.25V9.375H53.4375C54.1827 9.37723 54.8968 9.67426 55.4238 10.2012C55.9507 10.7282 56.2478 11.4423 56.25 12.1875V18.75Z" fill="#58BE6A"/>
<path d="M28.125 27.1875C28.125 26.6902 27.9275 26.2133 27.5758 25.8617C27.2242 25.51 26.7473 25.3125 26.25 25.3125H22.5C22.0027 25.3125 21.5258 25.51 21.1742 25.8617C20.8225 26.2133 20.625 26.6902 20.625 27.1875V30C20.625 30.4973 20.8225 30.9742 21.1742 31.3258C21.5258 31.6775 22.0027 31.875 22.5 31.875H26.25C26.7473 31.875 27.2242 31.6775 27.5758 31.3258C27.9275 30.9742 28.125 30.4973 28.125 30V27.1875ZM22.5 30V27.1875H26.25V30H22.5Z" fill="#58BE6A"/>
<path d="M16.875 27.1875C16.875 26.6902 16.6775 26.2133 16.3258 25.8617C15.9742 25.51 15.4973 25.3125 15 25.3125H11.25C10.7527 25.3125 10.2758 25.51 9.92418 25.8617C9.57254 26.2133 9.375 26.6902 9.375 27.1875V30C9.375 30.4973 9.57254 30.9742 9.92418 31.3258C10.2758 31.6775 10.7527 31.875 11.25 31.875H15C15.4973 31.875 15.9742 31.6775 16.3258 31.3258C16.6775 30.9742 16.875 30.4973 16.875 30V27.1875ZM11.25 30V27.1875H15V30H11.25Z" fill="#58BE6A"/>
<path d="M48.75 31.875C49.2473 31.875 49.7242 31.6775 50.0758 31.3258C50.4275 30.9742 50.625 30.4973 50.625 30V27.1875C50.625 26.6902 50.4275 26.2133 50.0758 25.8617C49.7242 25.51 49.2473 25.3125 48.75 25.3125H45C44.5027 25.3125 44.0258 25.51 43.6742 25.8617C43.3225 26.2133 43.125 26.6902 43.125 27.1875V30C43.125 30.4973 43.3225 30.9742 43.6742 31.3258C44.0258 31.6775 44.5027 31.875 45 31.875H48.75ZM45 27.1875H48.75V30H45V27.1875Z" fill="#58BE6A"/>
<path d="M28.125 35.625C28.125 35.1277 27.9275 34.6508 27.5758 34.2992C27.2242 33.9475 26.7473 33.75 26.25 33.75H22.5C22.0027 33.75 21.5258 33.9475 21.1742 34.2992C20.8225 34.6508 20.625 35.1277 20.625 35.625V38.4375C20.625 38.9348 20.8225 39.4117 21.1742 39.7633C21.5258 40.115 22.0027 40.3125 22.5 40.3125H26.25C26.7473 40.3125 27.2242 40.115 27.5758 39.7633C27.9275 39.4117 28.125 38.9348 28.125 38.4375V35.625ZM22.5 38.4375V35.625H26.25V38.4375H22.5Z" fill="#58BE6A"/>
<path d="M16.875 35.625C16.875 35.1277 16.6775 34.6508 16.3258 34.2992C15.9742 33.9475 15.4973 33.75 15 33.75H11.25C10.7527 33.75 10.2758 33.9475 9.92418 34.2992C9.57254 34.6508 9.375 35.1277 9.375 35.625V38.4375C9.375 38.9348 9.57254 39.4117 9.92418 39.7633C10.2758 40.115 10.7527 40.3125 11.25 40.3125H15C15.4973 40.3125 15.9742 40.115 16.3258 39.7633C16.6775 39.4117 16.875 38.9348 16.875 38.4375V35.625ZM11.25 38.4375V35.625H15V38.4375H11.25Z" fill="#58BE6A"/>
<path d="M26.25 42.1875H22.5C22.0027 42.1875 21.5258 42.385 21.1742 42.7367C20.8225 43.0883 20.625 43.5652 20.625 44.0625V46.875C20.625 47.3723 20.8225 47.8492 21.1742 48.2008C21.5258 48.5525 22.0027 48.75 22.5 48.75H26.25C26.7473 48.75 27.2242 48.5525 27.5758 48.2008C27.9275 47.8492 28.125 47.3723 28.125 46.875V44.0625C28.125 43.5652 27.9275 43.0883 27.5758 42.7367C27.2242 42.385 26.7473 42.1875 26.25 42.1875ZM22.5 46.875V44.0625H26.25V46.875H22.5Z" fill="#58BE6A"/>
<path d="M33.75 31.875H37.5C37.9973 31.875 38.4742 31.6775 38.8258 31.3258C39.1775 30.9742 39.375 30.4973 39.375 30V27.1875C39.375 26.6902 39.1775 26.2133 38.8258 25.8617C38.4742 25.51 37.9973 25.3125 37.5 25.3125H33.75C33.2527 25.3125 32.7758 25.51 32.4242 25.8617C32.0725 26.2133 31.875 26.6902 31.875 27.1875V30C31.875 30.4973 32.0725 30.9742 32.4242 31.3258C32.7758 31.6775 33.2527 31.875 33.75 31.875ZM33.75 27.1875H37.5V30H33.75V27.1875Z" fill="#58BE6A"/>
<path d="M31.875 38.4375C31.875 38.9348 32.0725 39.4117 32.4242 39.7633C32.7758 40.115 33.2527 40.3125 33.75 40.3125C33.9986 40.3125 34.2371 40.2137 34.4129 40.0379C34.5887 39.8621 34.6875 39.6236 34.6875 39.375C34.6875 39.1264 34.5887 38.8879 34.4129 38.7121C34.2371 38.5363 33.9986 38.4375 33.75 38.4375V35.625H37.5C37.7486 35.625 37.9871 35.5262 38.1629 35.3504C38.3387 35.1746 38.4375 34.9361 38.4375 34.6875C38.4375 34.4389 38.3387 34.2004 38.1629 34.0246C37.9871 33.8488 37.7486 33.75 37.5 33.75H33.75C33.2527 33.75 32.7758 33.9475 32.4242 34.2992C32.0725 34.6508 31.875 35.1277 31.875 35.625V38.4375Z" fill="#58BE6A"/>
<path d="M15 42.1875H11.25C10.7527 42.1875 10.2758 42.385 9.92418 42.7367C9.57254 43.0883 9.375 43.5652 9.375 44.0625V46.875C9.375 47.3723 9.57254 47.8492 9.92418 48.2008C10.2758 48.5525 10.7527 48.75 11.25 48.75H15C15.4973 48.75 15.9742 48.5525 16.3258 48.2008C16.6775 47.8492 16.875 47.3723 16.875 46.875V44.0625C16.875 43.5652 16.6775 43.0883 16.3258 42.7367C15.9742 42.385 15.4973 42.1875 15 42.1875ZM11.25 46.875V44.0625H15V46.875H11.25Z" fill="#58BE6A"/>
<path d="M45.9375 33.75C43.527 33.75 41.1707 34.4648 39.1665 35.804C37.1623 37.1431 35.6002 39.0466 34.6777 41.2735C33.7553 43.5005 33.5139 45.951 33.9842 48.3151C34.4544 50.6793 35.6152 52.8509 37.3196 54.5553C39.0241 56.2598 41.1957 57.4205 43.5598 57.8908C45.924 58.3611 48.3745 58.1197 50.6014 57.1973C52.8284 56.2748 54.7318 54.7127 56.071 52.7085C57.4102 50.7043 58.125 48.3479 58.125 45.9375C58.1213 42.7063 56.836 39.6085 54.5512 37.3237C52.2665 35.039 49.1687 33.7537 45.9375 33.75ZM45.9375 56.25C43.8979 56.25 41.9041 55.6452 40.2082 54.512C38.5123 53.3789 37.1905 51.7683 36.41 49.8839C35.6295 47.9995 35.4252 45.926 35.8232 43.9256C36.2211 41.9252 37.2032 40.0877 38.6455 38.6455C40.0877 37.2032 41.9252 36.2211 43.9256 35.8231C45.9261 35.4252 47.9996 35.6295 49.8839 36.41C51.7683 37.1905 53.3789 38.5123 54.512 40.2082C55.6452 41.9041 56.25 43.8979 56.25 45.9375C56.2468 48.6715 55.1592 51.2927 53.226 53.226C51.2927 55.1592 48.6715 56.2468 45.9375 56.25Z" fill="#58BE6A"/>
<path d="M51.3542 42.0076L44.0623 49.2994L40.7482 45.9844C40.5714 45.8137 40.3346 45.7192 40.0888 45.7213C39.843 45.7234 39.6078 45.822 39.434 45.9958C39.2602 46.1697 39.1616 46.4048 39.1595 46.6506C39.1573 46.8964 39.2518 47.1332 39.4226 47.3101L43.3995 51.2879C43.5753 51.4636 43.8137 51.5624 44.0623 51.5624C44.3109 51.5624 44.5493 51.4636 44.7251 51.2879L52.6798 43.3332C52.8506 43.1564 52.945 42.9196 52.9429 42.6737C52.9408 42.4279 52.8422 42.1928 52.6684 42.019C52.4945 41.8452 52.2594 41.7466 52.0136 41.7444C51.7678 41.7423 51.531 41.8368 51.3542 42.0076Z" fill="#58BE6A"/>
</svg>
