<svg width="60" height="60" viewBox="0 0 60 60" fill="none" xmlns="http://www.w3.org/2000/svg">
<g clip-path="url(#clip0)">
<path d="M58.626 53.3715L44.2817 39.0272C43.8856 38.6312 43.2435 38.6312 42.8475 39.0272L41.4132 40.4614L36.7859 35.8352C36.4562 35.502 36.3956 34.9872 36.6389 34.5865L50.0998 10.7726C50.8044 9.57726 50.6113 8.05669 49.6301 7.07547L43.5646 1.01396C42.3763 -0.174425 40.4496 -0.174678 39.2612 1.01358C39.2611 1.01371 39.261 1.01384 39.2609 1.01396L38.5437 0.296848C38.1477 -0.0991122 37.5056 -0.0991122 37.1095 0.296848L34.9571 2.4482C32.9756 0.471182 29.7676 0.471182 27.786 2.4482L1.96577 28.2684C-0.0113749 30.2504 -0.0113749 33.4586 1.96577 35.4406C0.777376 36.629 0.777376 38.5559 1.96577 39.7443C3.15415 40.9327 5.08109 40.9327 6.26947 39.7443C8.25143 41.7214 11.4597 41.7214 13.4416 39.7443L39.2609 13.9241C41.2414 11.9435 41.2414 8.73247 39.2609 6.75191L41.4132 4.59954C41.8092 4.20346 41.8092 3.5614 41.4132 3.16531L40.6951 2.4482C41.0909 2.05185 41.7332 2.05147 42.1296 2.44744C42.1298 2.44769 42.1301 2.44794 42.1303 2.4482L48.1908 8.5097C48.523 8.84163 48.5839 9.3583 48.3379 9.75832L34.8851 33.5722C34.1812 34.7662 34.373 36.2849 35.3517 37.2663L39.979 41.8926L38.5437 43.3268C38.1478 43.7229 38.1478 44.365 38.5437 44.7611L52.8881 59.1085C54.0763 60.2968 56.003 60.2971 57.1914 59.1088C57.1915 59.1087 57.1917 59.1086 57.1918 59.1085L58.626 57.6742C59.8139 56.486 59.8139 54.5598 58.626 53.3715ZM3.4 38.3101C3.00404 37.914 3.00404 37.2719 3.4 36.8758L4.83423 38.3111C4.43789 38.7068 3.79583 38.7064 3.4 38.3101ZM37.8266 12.4898L12.0064 38.3101C10.8164 39.4948 8.89273 39.4948 7.70269 38.3101L3.4 34.0064C2.21161 32.8181 2.21135 30.8914 3.39962 29.703C3.39974 29.7029 3.39987 29.7028 3.4 29.7027L29.2202 3.88243C30.4085 2.69455 32.3347 2.69455 33.5229 3.88243L37.8266 8.18614C39.0125 9.37567 39.0125 11.3003 37.8266 12.4898ZM37.8266 5.31564L36.3914 3.88243L37.8266 2.4482L39.2619 3.88243L37.8266 5.31564ZM57.1918 56.24V56.2339L55.7576 57.6742C55.3617 58.0706 54.7194 58.0709 54.3231 57.675C54.3228 57.6747 54.3226 57.6745 54.3223 57.6742L40.6951 44.047L43.5646 41.1785L57.1918 54.8058C57.5878 55.2019 57.5878 55.8439 57.1918 56.24Z" fill="#58BE6A"/>
</g>
<defs>
<clipPath id="clip0">
<rect width="60" height="60" fill="white"/>
</clipPath>
</defs>
</svg>
