<svg width="60" height="60" viewBox="0 0 60 60" fill="none" xmlns="http://www.w3.org/2000/svg">
<g clip-path="url(#clip0)">
<path d="M1.00022 60.1159H49.0001C49.5526 60.1159 50.0003 59.6682 50.0003 59.1161V50.116H57C57.5525 50.116 58.0002 49.6683 58.0002 49.1162V39.1159C58.0002 38.5638 57.5525 38.1161 57 38.1161H50.0003V29.116C50.0003 28.5635 49.5526 28.1158 49.0001 28.1158H47.1649C47.3059 27.4621 47.1567 26.7791 46.7561 26.2435L42.2375 20.2202L44.324 18.6551C45.251 17.9612 45.7687 16.8488 45.7033 15.6925L45.603 13.8916C45.5756 13.4032 45.7944 12.9335 46.1858 12.6401L48.2718 11.0755L49.1498 12.2455C49.3086 12.4575 49.5453 12.598 49.8081 12.6355C49.8547 12.6419 49.9019 12.6456 49.9495 12.6451C50.166 12.6456 50.3766 12.5751 50.5496 12.4451L58.8004 6.25565C60.1252 5.26185 60.3939 3.3818 59.4001 2.05657L58.8443 1.31499C57.8492 -0.00840655 55.97 -0.276199 54.6443 0.716236L46.3945 6.90522C45.9528 7.23664 45.863 7.86378 46.1945 8.30553L47.072 9.47558L44.986 11.0407C44.059 11.7346 43.5408 12.8466 43.6067 14.0029L43.7065 15.8037C43.7344 16.2922 43.5156 16.7623 43.1242 17.0553L41.0382 18.6204L36.5191 12.5971C36.0463 11.9567 35.2781 11.6037 34.4839 11.6619C33.7263 11.7168 33.0493 12.1562 32.6899 12.826L24.473 28.1158H1.00022C0.447694 28.1158 0 28.5635 0 29.116V39.1159C0 39.6684 0.447694 40.1161 1.00022 40.1161H7.9999V48.116H1.00022C0.447694 48.116 0 48.5637 0 49.1162V59.1161C0 59.6682 0.447694 60.1159 1.00022 60.1159ZM55.8446 2.31567C56.2859 1.98425 56.9126 2.07351 57.2445 2.51525L57.8002 3.25683C58.1311 3.69858 58.0414 4.3248 57.6001 4.65622L50.1491 10.246L48.3936 7.90498L55.8446 2.31567ZM18.0002 50.116H32.0001V58.1159H18.0002V50.116ZM26.0001 40.1161H40V48.116H26.0001V40.1161ZM48.0003 58.1159H34V50.116H48.0003V58.1159ZM56.0002 48.116H42V40.1161H56.0002V48.116ZM48.0003 38.1161H34V32.2929L44.2357 30.1158H48.0003V38.1161ZM34.4523 13.7735C34.4862 13.7035 34.5567 13.6586 34.6345 13.6563L34.6542 13.6554C34.7604 13.6573 34.8588 13.7099 34.9192 13.7969L39.4374 19.8202L35.312 22.9151C34.8703 23.2465 34.7805 23.8732 35.112 24.3154C35.4434 24.7572 36.0701 24.8464 36.5123 24.5155L40.6376 21.4205L45.1562 27.4438C45.2281 27.5317 45.2492 27.6502 45.2112 27.7569C45.1874 27.831 45.1247 27.8855 45.0478 27.8993L25.2087 32.118C25.0855 32.1372 24.9619 32.0846 24.891 31.9821C24.8113 31.8859 24.7953 31.7523 24.8498 31.6397L34.4523 13.7735ZM23.2915 33.1823C23.8244 33.9152 24.739 34.2645 25.6248 34.0741L32.0001 32.7182V38.1161H18.0002V30.1158H23.3978L23.0878 30.6925C22.6594 31.4904 22.7395 32.465 23.2915 33.1823ZM1.99998 34.1162H3.99995C4.55247 34.1162 5.00017 33.6685 5.00017 33.1159C5.00017 32.5639 4.55247 32.1162 3.99995 32.1162H1.99998V30.1158H16.0003V38.1161H1.99998V34.1162ZM9.99988 40.1161H24.0002V48.116H9.99988V40.1161ZM1.99998 50.116H16.0003V58.1159H1.99998V50.116Z" fill="#58BE6A"/>
<path d="M13.0002 33.116C13.0002 32.5639 12.5525 32.1162 12 32.1162H8C7.44794 32.1162 7.00024 32.5639 7.00024 33.116C7.00024 33.6685 7.44794 34.1162 8 34.1162H12C12.5525 34.1162 13.0002 33.6685 13.0002 33.116Z" fill="#58BE6A"/>
</g>
<defs>
<clipPath id="clip0">
<rect width="60" height="60" fill="white"/>
</clipPath>
</defs>
</svg>
