<svg width="20" height="20" viewBox="0 0 20 20" fill="none" xmlns="http://www.w3.org/2000/svg">
<path d="M16.185 18.0435V1.95652C16.185 0.877813 15.3074 0 14.2285 0H5.77195C4.69324 0 3.81543 0.877813 3.81543 1.95652V18.0435C3.81543 19.1224 4.69324 20 5.77195 20H14.2502C14.773 20 15.2815 19.785 15.6452 19.4102C16.0087 19.0354 16.2002 18.543 16.185 18.0435ZM14.7089 18.5018C14.5878 18.627 14.425 18.6957 14.2502 18.6957H5.77195C5.41238 18.6957 5.11977 18.403 5.11977 18.0435V1.95652C5.11977 1.59695 5.41238 1.30434 5.77195 1.30434H14.2285C14.588 1.30434 14.8807 1.59695 14.8807 1.95652L14.8809 18.063C14.8859 18.2265 14.8248 18.3824 14.7089 18.5018Z" fill="#0270A6"/>
<path d="M15.5547 2.5435H4.46777V3.84783H15.5547V2.5435Z" fill="#0270A6"/>
<path d="M15.5547 15.1304H4.46777V16.4348H15.5547V15.1304Z" fill="#0270A6"/>
<path d="M10.5546 16.8913H9.46762C9.10738 16.8913 8.81543 17.1833 8.81543 17.5435C8.81543 17.9037 9.10738 18.1957 9.46762 18.1957H10.5546C10.9148 18.1957 11.2068 17.9037 11.2068 17.5435C11.2068 17.1833 10.9148 16.8913 10.5546 16.8913Z" fill="#0270A6"/>
</svg>
