<svg width="30" height="30" viewBox="0 0 30 30" fill="none" xmlns="http://www.w3.org/2000/svg">
<g clip-path="url(#clip0)">
<path d="M29.1364 22.4895L24.8004 18.1517C24.2181 17.5723 23.4383 17.2531 22.6051 17.2531C21.738 17.2531 20.9193 17.5945 20.3002 18.214L18.6124 19.9014C17.3008 19.1724 15.5577 18.1698 13.7478 16.3599C11.9401 14.5516 10.9373 12.8135 10.2046 11.4949L11.8941 9.80668C13.1501 8.548 13.1758 6.52868 11.9515 5.3055L7.61639 0.970252C7.0357 0.387949 6.25595 0.0672607 5.42059 0.0672607C4.57283 0.0672607 3.77086 0.393658 3.15542 0.987751C2.7831 1.28759 0.914695 2.93695 0.218339 6.33843C-0.756633 11.0995 1.48347 15.6803 7.95036 22.1498C15.1744 29.3716 21.3416 29.933 23.0597 29.933C23.4174 29.933 23.6332 29.9109 23.6908 29.9042C27.0599 29.5093 28.2662 28.0131 29.147 26.9206C30.2882 25.5047 30.2843 23.6416 29.1364 22.4895ZM27.6976 25.7521C26.8697 26.779 26.0879 27.7487 23.4742 28.0551C23.4729 28.0553 23.3299 28.0713 23.0597 28.0713C21.5225 28.0713 15.9847 27.5493 9.26674 20.8334C3.3031 14.8673 1.20994 10.7759 2.04207 6.71174C2.64944 3.74488 4.26194 2.48384 4.32462 2.43594L4.38022 2.39486L4.42899 2.34596C4.69817 2.07702 5.05026 1.92884 5.42047 1.92884C5.75754 1.92884 6.06929 2.05518 6.29914 2.28577L10.6353 6.62201C11.1342 7.12042 11.1076 7.95912 10.5768 8.49104L8.6662 10.4L8.6348 10.4329C8.13689 10.9813 8.19547 11.7225 8.46974 12.2051C9.26116 13.6333 10.3452 15.5894 12.4312 17.676C14.5102 19.755 16.4634 20.8382 17.8876 21.6281C18.0302 21.7081 18.3246 21.8424 18.6931 21.8424C19.1282 21.8424 19.5277 21.6582 19.8234 21.3225L21.6165 19.53C21.8842 19.2621 22.2351 19.1146 22.6049 19.1146C22.9427 19.1146 23.256 19.2413 23.4854 19.4694L27.8185 23.8044C28.3689 24.3568 28.1417 25.2013 27.6976 25.7521Z" fill="#58BE6A"/>
<path d="M18.175 4.62827C19.7744 4.81232 21.6575 5.78108 22.9726 7.09623C24.2999 8.42353 25.271 10.3258 25.4463 11.9425C25.4981 12.4195 25.9014 12.7729 26.3706 12.7729C26.4041 12.7729 26.4381 12.7711 26.4721 12.7675C26.9831 12.712 27.3525 12.2528 27.297 11.7417C27.0752 9.6981 25.9225 7.41369 24.2889 5.77997C22.6706 4.16151 20.4095 3.01167 18.3879 2.77897C17.8774 2.71977 17.4156 3.08663 17.3568 3.5972C17.298 4.10777 17.6642 4.56944 18.175 4.62827Z" fill="#58BE6A"/>
<path d="M17.305 8.5274C18.17 8.62705 19.3671 9.26868 20.1514 10.0529C20.9423 10.8439 21.5851 12.0525 21.6798 12.9268C21.7316 13.4039 22.1349 13.7573 22.604 13.7573C22.6376 13.7573 22.6714 13.7555 22.7054 13.7519C23.2165 13.6964 23.586 13.2372 23.5305 12.7261C23.3687 11.2334 22.3777 9.6467 21.4675 8.73651C20.5655 7.83439 18.9943 6.84812 17.5178 6.67798C17.0066 6.61853 16.5455 6.98551 16.4866 7.49608C16.4279 8.00677 16.7943 8.46857 17.305 8.5274Z" fill="#58BE6A"/>
</g>
<defs>
<clipPath id="clip0">
<rect width="30" height="30" fill="white"/>
</clipPath>
</defs>
</svg>
