<svg width="30" height="30" viewBox="0 0 30 30" fill="none" xmlns="http://www.w3.org/2000/svg">
<path d="M24.278 27.0652V2.93479C24.278 1.31672 22.9616 0 21.3432 0H8.65842C7.04035 0 5.72363 1.31672 5.72363 2.93479V27.0652C5.72363 28.6836 7.04035 30 8.65842 30H21.3758C22.1601 30 22.9228 29.6775 23.4683 29.1154C24.0135 28.5531 24.3008 27.8146 24.278 27.0652ZM22.0639 27.7526C21.8822 27.9405 21.638 28.0435 21.3758 28.0435H8.65842C8.11906 28.0435 7.68014 27.6046 7.68014 27.0652V2.93479C7.68014 2.39543 8.11906 1.9565 8.65842 1.9565H21.3432C21.8826 1.9565 22.3215 2.39543 22.3215 2.93479L22.3218 27.0946C22.3293 27.3398 22.2376 27.5736 22.0639 27.7526Z" fill="#0270A6"/>
<path d="M23.3316 3.81519H6.70117V5.77169H23.3316V3.81519Z" fill="#0270A6"/>
<path d="M23.3316 22.6956H6.70117V24.6521H23.3316V22.6956Z" fill="#0270A6"/>
<path d="M15.8323 25.3369H14.2019C13.6616 25.3369 13.2236 25.7748 13.2236 26.3152C13.2236 26.8555 13.6616 27.2935 14.2019 27.2935H15.8323C16.3727 27.2935 16.8106 26.8555 16.8106 26.3152C16.8106 25.7748 16.3726 25.3369 15.8323 25.3369Z" fill="#0270A6"/>
</svg>
