<svg width="24" height="24" viewBox="0 0 24 24" fill="none" xmlns="http://www.w3.org/2000/svg">
<path d="M3.51437 3.5148C4.13099 2.89818 5.13073 2.89818 5.74734 3.5148L20.4849 18.2524C21.1016 18.869 21.1016 19.8687 20.4849 20.4854C19.8683 21.102 18.8686 21.102 18.252 20.4854L3.51437 5.74777C2.89776 5.13115 2.89776 4.13142 3.51437 3.5148Z" fill="white"/>
<path d="M3.51492 20.4855C2.8983 19.8689 2.8983 18.8691 3.51492 18.2525L18.2525 3.51491C18.8691 2.89829 19.8689 2.89829 20.4855 3.51491C21.1021 4.13153 21.1021 5.13126 20.4855 5.74788L5.74789 20.4855C5.13127 21.1021 4.13154 21.1021 3.51492 20.4855Z" fill="white"/>
</svg>
