<svg width="24" height="20" viewBox="0 0 24 20" fill="none" xmlns="http://www.w3.org/2000/svg">
<path fill-rule="evenodd" clip-rule="evenodd" d="M0 1.57895C0 0.706919 0.706919 0 1.57895 0H22.4211C23.2931 0 24 0.706919 24 1.57895C24 2.45098 23.2931 3.15789 22.4211 3.15789H1.57895C0.706918 3.15789 0 2.45098 0 1.57895ZM0 10C0 9.12797 0.706919 8.42105 1.57895 8.42105H22.4211C23.2931 8.42105 24 9.12797 24 10C24 10.872 23.2931 11.5789 22.4211 11.5789H1.57895C0.706918 11.5789 0 10.872 0 10ZM1.57895 16.8421C0.706919 16.8421 0 17.549 0 18.4211C0 19.2931 0.706918 20 1.57895 20H22.4211C23.2931 20 24 19.2931 24 18.4211C24 17.549 23.2931 16.8421 22.4211 16.8421H1.57895Z" fill="#50C390"/>
</svg>
